<?xml version="1.0"?>
<svg xmlns="http://www.w3.org/2000/svg" width="887" height="887" version="1.1" style="background-color:transparent;">
<style>path {fill:#ffffff; fill-opacity:1; stroke:none;}</style>
  <path d="M 0,0L 0,887L 887,887L 887,0ZM 72.8146,691.3709L 72.4625,688.0751L 72.1479,684.7042L 72,683L 71.8534,681.5061L 71.6161,678.5099L 71.5255,675.5L 71.6161,672.4901L 71.8534,669.4939L 72,668L 72.2218,664.4436L 72.4917,660.9833L 72.8216,657.6433L 73,656L 73,368L 73,364L 73,360.0001L 73.0004,356.0008L 73.0026,352.0052L 73.0118,348.0236L 73.0414,344.0828L 73.1153,340.2306L 73.2632,336.5264L 73.5034,333.0069L 73.8238,329.6476L 74,328L 74.1479,326.2958L 74.4625,322.9249L 74.8146,319.6291L 75,318L 75.1035,314.207L 75.2606,310.5212L 75.503,307.0061L 75.8238,303.6475L 76,302L 76,211L 76,207L 76,203.0001L 76.0004,199.0008L 76.0015,197.003L 76.0072,193.0144L 76.0267,189.0535L 76.0531,187.1061L 76.1374,183.2746L 76.2197,181.4383L 76.4393,177.8727L 76.6083,176.2017L 77.0094,172.9702L 77.2715,171.4546L 77.8521,168.5L 78.1952,167.0887L 78.9267,164.3173L 79.7414,161.6478L 80.6239,159.088L 81.091,157.8712L 81.568,156.6871L 82.0541,155.5341L 82.5495,154.4094L 83.0548,153.3096L 83.5712,152.2311L 84.1,151.1704L 84.643,150.1241L 85.2018,149.0894L 85.7781,148.0638L 86.3736,147.045L 86.9902,146.0314L 87.6295,145.0218L 88.2932,144.0149L 88.9825,143.0102L 89.6984,142.0069L 90.4415,141.0046L 91.2118,140.0031L 92.8061,138.001L 94.5038,136.0003L 95.3986,135.0004L 97.2257,133.0015L 99.118,131.0072L 101.0566,129.0267L 102.0407,128.0531L 104.0176,126.1374L 105.0134,125.2197L 107.0118,123.4393L 108.0207,122.6083L 110.0579,121.0094L 112.1518,119.5337L 114.3427,118.171L 115.5072,117.5395L 117.917,116.3211L 120.483,115.1885L 121.8308,114.6632L 123.1983,114.1584L 125.9586,113.1898L 128.7455,112.3018L 131.5227,111.4898L 134.2815,110.7457L 137.0462,110.0653L 139.8694,109.4569L 141.3406,109.2003L 144.362,108.7497L 147.5367,108.4357L 150.831,108.2753L 154.1706,108.2749L 157.4658,108.4343L 160.6425,108.7457L 162.1558,108.9666L 165.1035,109.4512L 166.497,109.7243L 167.8563,110.0061L 170.523,110.5907L 171.8195,110.9097L 173.1086,111.2474L 175.6755,111.9628L 176.9488,112.3609L 179.4853,113.1949L 180.7422,113.6465L 183.2408,114.5786L 185.7026,115.5656L 188.1107,116.6069L 190.4447,117.7096L 192.6907,118.8846L 194.8495,120.1418L 195.8935,120.8151L 197.9579,122.2068L 199.9861,123.6846L 201.9963,125.2369L 203.9993,126.8511L 205.9999,128.5215L 208,130.2438L 210,132L 211,132.7982L 213,134.4017L 215,136.0275L 217,137.6919L 219,139.4104L 221,141.1863L 223,143L 224,143.8338L 226,145.5189L 228,147.2436L 230,149L 232,150.6455L 234,152.3122L 236,154L 238,155.6455L 240,157.3122L 242,159L 243,159.7982L 245,161.4017L 247,163.0275L 249,164.6919L 251,166.4104L 253,168.1863L 255,170L 256,170.8338L 258,172.5189L 260,174.2436L 262,176L 264,177.6861L 266,179.4097L 268,181.1862L 270,183L 272,184.6861L 274,186.4097L 276,188.1862L 278,190L 279,190.8338L 281,192.5189L 283,194.2436L 285,196L 287,197.6861L 289,199.4097L 291,201.1862L 293,203L 294,203.8338L 296,205.5189L 298,207.2436L 300,209L 301,209.8338L 303,211.5189L 305,213.2436L 307,215L 308,215.8338L 310,217.5189L 312,219.2436L 314,221L 316,222.6455L 318,224.3122L 320,226L 322,227.6455L 324,229.3122L 326,231L 328,232.6455L 330,234.3122L 332,236L 334,237.6861L 336,239.4097L 338,241.1862L 340,243L 342,244.6455L 344,246.3122L 346,248L 348,249.6455L 350,251.3122L 351,252.1561L 352,253.0005L 354,254.7008L 356,256.4406L 358,258.2419L 360,260.1029L 362,262L 363,262.8338L 365,264.5189L 367,266.2436L 369,268L 370,268.8338L 372,270.5189L 374,272.2436L 376,274L 378,275.6455L 380,277.3122L 382,279L 384,280.5962L 386,282.206L 388,283.8428L 390,285.52L 392,287.2436L 394,289L 396,290.6455L 398,292.3122L 400,294L 402,295.6455L 404,297.3122L 406,299L 407,299.7962L 409,301.3939L 411,303L 413,304.4995L 415,306L 417,307L 419,308L 421,309L 423,310L 426,311L 435,311L 438,310L 440,309L 442,308L 444,306.6667L 445,306L 446,305.2495L 448,303.7495L 449,303L 450,302.1479L 452,300.4625L 454,298.8146L 455,298L 456,297.1479L 458,295.4625L 460,293.8146L 461,293L 463,291.1035L 465,289.2606L 467,287.503L 469,285.8238L 470,285L 471,284.0296L 473,282.1127L 475,280.2628L 477,278.5034L 479,276.8238L 480,276L 482,274.2218L 484,272.4917L 486,270.8216L 487,270L 489,268.0114L 491,266.0413L 493,264.1153L 495,262.2632L 497,260.5034L 499,258.8238L 500,258L 501,257.1479L 503,255.4625L 505,253.8146L 506,253L 508,251.1035L 510,249.2606L 512,247.503L 514,245.8238L 515,245L 516,244.0092L 518,242.041L 520,240.1153L 522,238.2632L 524,236.5034L 526,234.8238L 527,234L 528,233.0739L 530,231.2514L 532,229.5009L 534,227.8234L 535,227L 536,226.0296L 538,224.1127L 540,222.2628L 542,220.5034L 544,218.8238L 545,218L 546,217.1479L 548,215.4625L 550,213.8146L 551,213L 553,211.1035L 555,209.2606L 557,207.503L 559,205.8238L 560,205L 561,204.0296L 563,202.1127L 565,200.2628L 567,198.5034L 569,196.8238L 570,196L 572,194.2218L 574,192.4917L 576,190.8216L 577,190L 579,188.0114L 581,186.0413L 583,184.1153L 585,182.2632L 587,180.5034L 589,178.8238L 590,178L 591,177.1479L 593,175.4625L 595,173.8146L 596,173L 598,171.1035L 600,169.2606L 602,167.503L 604,165.8238L 605,165L 607,163.2218L 609,161.4917L 611,159.8216L 612,159L 613,158.0739L 615,156.2514L 617,154.5009L 619,152.8234L 620,152L 621,151.0092L 623,149.041L 625,147.1153L 627,145.2632L 629,143.5034L 631,141.8238L 632,141L 633,140.1479L 635,138.4625L 637,136.8146L 638,136L 640,134.1035L 642,132.2606L 644,130.503L 646,128.8238L 647,128L 648,127.132L 650,125.424L 651,124.6078L 653,123.0269L 654,122.2895L 656,120.8679L 657,120.2082L 659.0004,118.9345L 660.0015,118.3398L 661.0045,117.7625L 663.0178,116.6379L 665.0569,115.5651L 667.1511,114.5275L 669.3407,113.5123L 671.6665,112.5148L 674.154,111.5421L 676.8049,110.6155L 679.5988,109.7642L 682.5019,109.011L 683.9887,108.6847L 686.9842,108.0745L 690.025,107.5406L 693.1342,107.0749L 696.362,106.6873L 699.7514,106.3994L 701.5241,106.3153L 703.3178,106.2639L 706.9186,106.2273L 708.7057,106.2751L 710.4641,106.3546L 713.9136,106.5731L 715.5682,106.737L 718.8127,107.1097L 720.3797,107.3376L 723.4767,107.831L 724.9937,108.1168L 728.0001,108.7317L 729.4712,109.084L 732.3684,109.8343L 733.763,110.2522L 736.4821,111.123L 739.0511,112.0526L 741.4614,113.0207L 743.7267,114.0131L 744.8023,114.5206L 745.8588,115.037L 746.9004,115.5654L 747.9305,116.109L 748.9521,116.6705L 749.9673,117.252L 750.9779,117.8548L 751.9852,118.4795L 752.9902,119.1259L 753.9935,119.7937L 754.9958,120.4824L 756.9987,121.9009L 758.9996,123.4009L 760.9995,124.9823L 762.9974,126.6471L 764.9882,128.3951L 765.9734,129.3079L 766.9475,130.237L 768.866,132.1235L 770.7117,134.058L 771.5884,135.0412L 773.294,137.0166L 774.1018,138.0112L 775.6778,140.0038L 776.4278,141.0025L 777.8898,143.0007L 778.5806,144.0004L 779.9182,146.0001L 780.5424,147.0001L 781.7483,149L 782.3128,150L 783.4124,152.0004L 784.4642,154.0025L 785.4871,156.0116L 785.9906,157.0262L 786.4912,158.0519L 787.4852,160.1344L 788.4599,162.2957L 789.402,164.5652L 790.294,166.9589L 791.1196,169.4773L 791.8664,172.1164L 792.5249,174.8839L 793.0901,177.7964L 793.571,180.8518L 793.7855,182.4259L 794.2058,185.5885L 794.4076,187.1849L 794.8028,190.3944L 795.1743,193.6513L 795.3355,195.3286L 795.6167,198.7608L 795.8107,202.3457L 795.9212,206.0426L 795.9708,209.7736L 795.981,213.4908L 795.9571,217.1946L 795.8845,220.8831L 795.7368,224.5064L 795.4966,227.999L 795.1762,231.3529L 795,233L 795,252L 795.1762,253.6476L 795.4966,257.0069L 795.7368,260.5264L 795.8847,264.2306L 795.9586,268.0828L 795.9882,272.0236L 795.9974,276.0052L 795.9996,280.0008L 796,284.0001L 796,288L 796,292L 796,660L 796,664L 796,666L 795.9998,669.9996L 795.9991,671.9983L 795.9955,675.9915L 795.9889,677.9793L 795.9626,681.9327L 795.9292,683.8762L 795.8242,687.7053L 795.723,689.5501L 795.4523,693.1518L 795.2426,694.8626L 794.7426,698.1979L 794.4151,699.7862L 793.6937,702.8978L 793.2755,704.3925L 792.3994,707.3231L 791.4604,710.128L 790.9733,711.4577L 790.4816,712.747L 789.9862,713.996L 789.487,715.2064L 788.9833,716.381L 788.4735,717.5233L 787.9558,718.6375L 787.4273,719.7276L 786.8851,720.7977L 786.326,721.8514L 785.7466,722.892L 785.1438,723.9223L 784.515,724.9446L 783.8577,725.9609L 783.1706,726.9726L 782.4527,727.981L 781.7039,728.9869L 780.1458,730.9952L 779.3087,731.9968L 777.5834,733.9988L 776.6748,734.9985L 774.8225,736.9954L 773.8665,737.9888L 771.9346,739.9626L 770.9526,740.9292L 768.9793,742.8242L 767.9855,743.723L 765.9944,745.4523L 764.9962,746.2426L 762.9983,747.7426L 761.9976,748.4151L 760.995,749.0544L 758.9821,750.2755L 756.9431,751.3993L 754.8489,752.46L 752.6592,753.4839L 750.3327,754.4839L 747.8409,755.4551L 745.1718,756.3723L 742.3187,757.1928L 740.7922,757.5309L 737.628,758.119L 734.2378,758.5309L 730.6315,758.7822L 728.7423,758.8469L 724.9125,758.9359L 722.9665,758.9457L 719.0854,758.9358L 717.1774,758.8979L 715.3065,758.8383L 711.6544,758.6696L 708.205,758.3915L 706.5942,758.1909L 703.4808,757.7272L 702.0238,757.4346L 700.6087,757.113L 699.2327,756.7628L 697.8937,756.3837L 696.5904,755.9758L 695.3218,755.5386L 694.0866,755.0721L 692.8831,754.5763L 691.7096,754.051L 690.5637,753.4961L 689.4427,752.9116L 688.3438,752.2973L 687.2641,751.6528L 686.2007,750.9781L 685.1509,750.273L 684.1123,749.538L 683.0828,748.7736L 682.0604,747.9807L 681.0437,747.1608L 680.0313,746.3156L 679.0223,745.4472L 678.0157,744.5576L 677.011,743.6492L 676.0076,742.7245L 675.0053,741.7855L 674.0036,740.8345L 673.0024,739.8734L 672.0017,738.9039L 671.0011,737.9277L 670.0007,736.9461L 669.0005,735.9601L 668.0003,734.9706L 667.0002,733.9786L 666.0001,732.9845L 665.0001,731.9888L 664.0001,730.992L 663,729.9943L 662,728.996L 661,727.9972L 660,726.998L 659,725.9986L 658,724.9991L 656,722.9997L 655,721.9998L 654,720.9998L 653,719.9999L 652,718.9999L 650,717L 649,716L 648,715L 647,714L 645,712L 644,711L 643,710L 641,708L 640,707L 639,706L 637,704L 636,703L 635,702L 633,700L 632,699L 631,698L 629,696L 628,695L 627,694L 626,693L 624,691L 622,689L 620.0004,686.9999L 618.003,684.9992L 616.0148,682.9948L 614.0562,680.9756L 612.1715,678.912L 610.4347,676.7449L 608.9382,674.3856L 607.762,671.738L 606.9382,668.738L 606.4347,665.3856L 606.1715,661.7449L 606.0562,657.912L 606.0148,653.9756L 606.003,649.9948L 606.0004,645.9992L 606,641.9999L 606,638L 606,634L 606,484L 605.8146,482.3709L 605.4625,479.0751L 605.1479,475.7042L 605,474L 604.6667,472.6667L 604,470L 603,467L 602,465L 601,464L 600,463L 599,462L 597,461L 591,461L 588,462L 586,463L 584,464L 582,465.3333L 581,466L 580,466.8521L 578,468.5375L 576,470.1854L 575,471L 574,471.8521L 572,473.5375L 570,475.1854L 569,476L 567,477.8965L 565,479.7394L 563,481.497L 561,483.1762L 560,484L 559,485L 557,486.9996L 555,488.9974L 553,490.9882L 551,492.9586L 549,494.8847L 547,496.7368L 545,498.4966L 543,500.1762L 542,501L 540,502.7782L 538,504.5083L 536,506.1784L 535,507L 533,508.9886L 531,510.9587L 529,512.8847L 527,514.7368L 525,516.4966L 523,518.1762L 522,519L 521,519.8521L 519,521.5375L 517,523.1854L 516,524L 514,525.8965L 512,527.7394L 510,529.497L 508,531.1762L 507,532L 505,533.9975L 503,535.9882L 501,537.9586L 499,539.8847L 497,541.7368L 495,543.4966L 493,545.1762L 492,546L 490,547.7782L 488,549.5083L 486,551.1784L 485,552L 483,553.9975L 481,555.9882L 479,557.9586L 477,559.8847L 475,561.7368L 473,563.4966L 471,565.1762L 470,566L 469,566.8521L 467,568.5375L 465,570.1854L 464,571L 462,572.8965L 460,574.7394L 458,576.497L 456,578.1762L 455,579L 454,579.9261L 453,580.8374L 451.9999,581.7305L 449.999,583.4785L 447.9946,585.1482L 445.9798,586.7298L 443.9426,588.1799L 441.8684,589.401L 440.8082,589.8302L 439.7379,590.1384L 438.6605,590.3184L 437.5795,590.3688L 435.4175,590.2183L 433.268,589.597L 431.1508,588.591L 429.0732,587.3083L 427.0301,585.8403L 425.0102,584.2432L 423.0028,582.5429L 421.0006,580.7542L 419.0001,578.8964L 417,577L 415,575.3545L 414,574.5211L 412,572.8431L 410,571.1437L 408,569.4153L 406,567.6385L 404,565.7998L 402,563.9027L 400,561.9624L 398,560L 397,559.1554L 395,557.4453L 393,555.6824L 391,553.8603L 389,552L 388,551.1662L 386,549.4811L 384,547.7564L 382,546L 380,544.2992L 378,542.5594L 376,540.7581L 374,538.8971L 372,537L 370,535.3545L 368,533.6878L 367,532.8439L 365,531.1554L 363,529.4453L 361,527.6824L 359,525.8603L 357,524L 355,522.3139L 353,520.5903L 351,518.8138L 349,517L 348,516.1662L 346,514.4811L 344,512.7564L 342,511L 341,510.1399L 339,508.4034L 337,506.6229L 335,504.7847L 333,502.8899L 331,500.9504L 329,498.982L 327,497L 325,495.3545L 323,493.6878L 322,492.8439L 320,491.1554L 318,489.4453L 316,487.6824L 314,485.8603L 312,484L 310,482.3139L 308,480.5903L 306,478.8138L 304,477L 303,476.1662L 301,474.4811L 299,472.7564L 297,471L 296,470.1495L 294,468.4286L 292,466.656L 290,464.8188L 288,462.9254L 286,461L 285,460.1554L 283,458.4453L 281,456.6824L 279,454.8603L 277,453L 276,452.1662L 274,450.4811L 272,448.7564L 270,447L 269,446.1554L 267,444.4453L 265,442.6824L 263,440.8603L 261,439L 259,437.3545L 258,436.5209L 256,434.8401L 254,433.132L 252,431.3922L 250,429.6085L 248,427.7705L 246,425.8786L 244,423.9424L 242,421.9759L 240,419.9918L 238,418L 237,417.1772L 235.0013,415.5219L 233.0117,413.8453L 231.0531,412.1372L 229.1699,410.3564L 227.4343,408.4181L 225.9381,406.217L 224.762,403.6625L 223.9382,400.7091L 223.4347,397.3763L 223.1715,393.7424L 223.0562,389.9115L 223.0148,385.9755L 223.0089,383.9851L 223.0017,379.997L 223.0003,375.9996L 223.0005,372.0008L 223.0031,368.0057L 223.0091,366.0166L 223.023,364.041L 223.0786,360.1372L 223.2252,356.3839L 223.5546,352.922L 224.1908,349.9412L 224.7196,348.7933L 225.3622,347.8566L 226.343,347.0696L 228.5033,346.0323L 230.7338,346.0774L 232.838,346.9303L 234.9242,348.2074L 236.9721,349.7395L 238.992,351.4192L 240.9983,353.1871L 243,355L 244,355.8338L 246,357.5189L 248,359.2436L 250,361L 252,362.7008L 254,364.4406L 256,366.2419L 258,368.1029L 260,370L 262,371.6455L 263,372.4789L 264,373.3179L 266,375.0066L 268,376.7205L 270,378.4731L 272,380.281L 274,382.1494L 276,384.0699L 278,386.0261L 280,388L 282,389.7008L 284,391.4406L 286,393.2419L 288,395.1029L 290,397L 291,397.8338L 293,399.5189L 295,401.2436L 297,403L 299,404.7008L 301,406.4406L 303,408.2419L 305,410.1029L 307,412L 308,412.8338L 310,414.5189L 312,416.2436L 314,418L 316,419.6861L 318,421.4097L 320,423.1862L 322,425L 323,425.8446L 325,427.5547L 327,429.3176L 329,431.1397L 331,433L 333,434.6455L 334,435.4791L 335,436.3195L 337,438.0139L 339,439.7379L 341,441.4997L 343,443.3105L 345,445.1755L 347,447.0895L 349,449.0409L 351,451.0166L 353,453.0055L 355,455L 356,455.8446L 358,457.5547L 360,459.3176L 362,461.1397L 364,463L 366,464.6861L 368,466.4097L 370,468.1862L 372,470L 373,470.8338L 375,472.5189L 377,474.2436L 379,476L 381,477.6455L 382,478.4789L 384,480.1581L 386,481.8621L 388,483.5966L 390,485.3771L 392,487.2153L 394,489.1101L 396,491.0496L 398,493.018L 400,495L 402,496.6455L 404,498.3122L 406,500L 407,500.8338L 409,502.5189L 411,504.2436L 413,506L 415,507.4995L 417,509L 419,510.4995L 421,512L 423,513L 425,514L 427,515L 430,516L 442,516L 445,515L 447,514L 449,513L 451,511.6667L 452,511L 454,509.6667L 455,509L 457,507.6667L 458,507L 460,505.3907L 462,503.7942L 463,503L 465,501.2218L 467,499.4917L 469,497.8216L 470,497L 471,496L 473,494L 475,492L 477,490.0004L 479,488.0026L 481,486.0118L 483,484.0414L 485,482.1153L 487,480.2632L 489,478.5034L 491,476.8238L 492,476L 493,475.1479L 495,473.4625L 497,471.8146L 498,471L 500,469.1035L 502,467.2606L 504,465.503L 506,463.8238L 507,463L 508,462.0296L 510,460.1127L 512,458.2628L 514,456.5034L 516,454.8238L 517,454L 518,453.0739L 520,451.2514L 522,449.5009L 524,447.8234L 525,447L 526,446L 528,444L 530,442.0004L 532,440.0026L 534,438.0118L 536,436.0414L 538,434.1153L 540,432.2632L 542,430.5034L 544,428.8238L 545,428L 546,427.1479L 548,425.4625L 550,423.8146L 551,423L 553,421.1035L 555,419.2606L 557,417.503L 559,415.8238L 560,415L 561,414.0092L 563,412.041L 565,410.1153L 567,408.2632L 569,406.5034L 571,404.8238L 572,404L 573,403.0739L 575,401.2514L 577,399.5009L 579,397.8234L 580,397L 581,396L 583,394L 585,392.0004L 587,390.0026L 589,388.0118L 591,386.0414L 593,384.1153L 595,382.2632L 597,380.5034L 599,378.8238L 600,378L 601,377.1479L 603,375.4625L 605,373.8146L 606,373L 608,371.1035L 610,369.2606L 612,367.503L 614,365.8238L 615,365L 617,363.0025L 619,361.0118L 621,359.0414L 623,357.1153L 625,355.2632L 627,353.5034L 629,351.8238L 630,351L 632,349.2218L 634,347.4917L 636,345.8216L 637,345L 638.0002,344.0474L 640.0012,342.1755L 642.0058,340.4109L 643.0192,339.6333L 645.0834,338.2665L 647.224,337.4051L 649.347,337.3189L 651.1984,338.2257L 652.5424,340.163L 653.3472,342.9669L 653.7512,346.3702L 653.9218,350.1183L 653.9805,354.0306L 653.9963,358.0061L 653.9995,362.0009L 654,366.0001L 654,370L 654,374L 654,630L 654.2058,631.5885L 654.6093,634.7813L 655,638L 655.3333,639.3333L 656,642L 656.3333,643.3333L 657,646L 658,649L 659,651L 660,653L 661,655L 662,657L 663.3333,659L 664,660L 665.3333,662L 666,663L 666.8521,664L 668.5375,666L 670.1854,668L 671,669L 672,670L 673,671L 674,672L 675,673L 676,674L 677,675L 678,676L 679,677L 680,678L 681,679L 682,680L 683,681L 684,682L 685,683L 686,683.8338L 688,685.5189L 690,687.2436L 692,689L 693,689.7962L 695,691.3939L 697,693L 699,694.4995L 701,696L 703,697L 705,698L 707,699L 709,700L 711,701L 713,702L 715.6667,702.6667L 717,703L 725,703L 726.3333,702.6667L 729,702L 731,700.6667L 732,700L 733,699.2495L 735,697.7495L 736,697L 736.6667,696L 738,694L 738.6667,693L 740,691L 740.5,689.7495L 741.5,687.2495L 742,686L 743,683L 743.6667,680.3333L 744,679L 744.2495,677.499L 744.7495,674.499L 745,673L 745.2218,669.4436L 745.4917,665.9833L 745.8216,662.6433L 746,661L 746,218L 745.8234,216.3531L 745.5009,212.9983L 745.2514,209.4973L 745.0739,205.8521L 745,204L 744.7942,202.6044L 744.3907,199.8071L 744,197L 743.7495,195.7505L 743.2495,193.2505L 743,192L 742.6667,190.6667L 742,188L 741,185.501L 740,183L 739,181L 738,179L 737,177L 735.6667,175L 735,174L 734,173L 733,172L 732,171L 731,170L 730,169L 729,168L 728,167L 727,166L 726,165.3333L 724,164L 722,163L 720,162L 717.3333,161.3333L 716,161L 713.3333,160.3333L 712,160L 700,160L 698.7505,160.2505L 696.2505,160.7505L 695,161L 692,162L 689.501,163L 687,164L 686,164.6029L 684,165.8047L 682,167L 680,168.3333L 679,169L 677,170.3333L 676,171L 675,171.7505L 673,173.2505L 672,174L 671,174.8521L 669,176.5375L 667,178.1854L 666,179L 664,180.8965L 662,182.7394L 660,184.497L 658,186.1762L 657,187L 655,188.9975L 653,190.9882L 651,192.9586L 649,194.8847L 647,196.7368L 645,198.4966L 643,200.1762L 642,201L 640,202.7782L 638,204.5083L 636,206.1784L 635,207L 633,208.9886L 631,210.9587L 629,212.8847L 627,214.7368L 625,216.4966L 623,218.1762L 622,219L 621,219.8521L 619,221.5375L 617,223.1854L 616,224L 614,225.8965L 612,227.7394L 610,229.497L 608,231.1762L 607,232L 606,232.9704L 604,234.8873L 602,236.7372L 600,238.4966L 598,240.1762L 597,241L 595,242.7782L 593,244.5083L 591,246.1784L 590,247L 588,248.9975L 586,250.9882L 584,252.9586L 582,254.8847L 580,256.7368L 578,258.4966L 576,260.1762L 575,261L 574,261.8521L 572,263.5375L 570,265.1854L 569,266L 567,267.8965L 565,269.7394L 563,271.497L 561,273.1762L 560,274L 558,275.9886L 556,277.9587L 554,279.8847L 552,281.7368L 550,283.4966L 548,285.1762L 547,286L 545,287.7782L 543,289.5083L 541,291.1784L 540,292L 538,293.9975L 536,295.9882L 534,297.9586L 532,299.8847L 530,301.7368L 528,303.4966L 526,305.1762L 525,306L 524,306.8521L 522,308.5375L 520,310.1854L 519,311L 517,312.8965L 515,314.7394L 513,316.497L 511,318.1762L 510,319L 509,319.9704L 507,321.8873L 505,323.7372L 503,325.4966L 501,327.1762L 500,328L 498,329.7782L 496,331.5083L 494,333.1784L 493,334L 492,334.9261L 490,336.7486L 488,338.4991L 486,340.1766L 485,341L 484,341.8521L 482,343.5375L 480,345.1854L 479,346L 477,347.8965L 475,349.7394L 473,351.497L 471,353.1762L 470,354L 469,355L 467,356.9996L 465,358.9974L 463,360.9882L 461,362.9586L 459,364.8847L 457,366.7368L 455,368.4966L 453,370.1762L 452,371L 451,371.9261L 449,373.7486L 447,375.4991L 445,377.1766L 444,378L 442.9644,378.9025L 441.9175,379.7713L 439.7925,381.4065L 437.5955,382.7678L 435.322,383.7261L 432.999,384.1847L 430.6757,384.1044L 428.4021,383.5144L 426.2069,382.4985L 424.0901,381.1672L 422.0306,379.6329L 420,378L 418,376.4024L 416,374.788L 414,373.1403L 412,371.4427L 410,369.6822L 408,367.8603L 406,366L 404,364.3545L 402,362.6878L 400,361L 398,359.3545L 396,357.6878L 394,356L 393,355.1662L 391,353.4811L 389,351.7564L 387,350L 386,349.2018L 384,347.5983L 382,345.9725L 380,344.3081L 378,342.5896L 376,340.8137L 374,339L 373,338.1662L 371,336.4811L 369,334.7564L 367,333L 366,332.1662L 364,330.4811L 362,328.7564L 360,327L 359,326.1662L 357,324.4811L 355,322.7564L 353,321L 351,319.3545L 349,317.6878L 348,316.8439L 347,315.9995L 345,314.2992L 343,312.5594L 341,310.7581L 339,308.8971L 337,307L 335,305.3545L 333,303.6878L 332,302.8439L 330,301.1554L 328,299.4453L 326,297.6824L 324,295.8603L 322,294L 320,292.3545L 318,290.6878L 316,289L 314,287.3545L 312,285.6878L 310,284L 309,283.1662L 307,281.4811L 305,279.7564L 303,278L 301,276.3545L 299,274.6878L 297,273L 296,272.1662L 294,270.4811L 292,268.7564L 290,267L 289,266.1662L 287,264.4811L 285,262.7564L 283,261L 281,259.3545L 279,257.6878L 277,256L 275,254.3139L 273,252.5903L 271,250.8138L 269,249L 268,248.1662L 266,246.4811L 264,244.7564L 262,243L 261,242.1662L 259,240.4811L 257,238.7564L 255,237L 254,236.1662L 252,234.4811L 250,232.7564L 248,231L 246,229.3545L 244,227.6878L 243,226.8439L 242,225.9995L 240,224.2992L 238,222.5594L 236,220.7581L 234,218.8971L 232,217L 230,215.3545L 228,213.6878L 227,212.8439L 225,211.1554L 223,209.4453L 221,207.6824L 219,205.8603L 217,204L 215,202.3545L 213,200.6878L 211,199L 209,197.3545L 207,195.6878L 206,194.8439L 204,193.1554L 202,191.4453L 200,189.6824L 198,187.8603L 196,186L 194,184.3545L 192,182.6878L 190,181L 188,179.3545L 186,177.6878L 184,176L 182,174.3545L 180,172.6878L 178,171L 176,169.5005L 174,168L 173,167.3333L 171,166L 169,165L 167,164L 165,163L 162,162L 148,162L 145,163L 143,164L 141,165.3333L 140,166L 139,167L 138,168L 137,169L 136,170L 135,171L 134,172L 133,173L 132.3333,174L 131,176L 130,178L 129,180L 128,182L 127,185L 126,188L 125.7505,189.501L 125.2505,192.501L 125,194L 124.6093,197.2187L 124.2058,200.4115L 124,202L 124,466L 124,470L 124,473.9999L 123.9996,477.9992L 123.9974,481.9948L 123.9882,485.9764L 123.9586,489.9172L 123.8847,493.7694L 123.7368,497.4736L 123.4966,500.9931L 123.1762,504.3524L 123,506L 122.8521,507.7042L 122.5375,511.0751L 122.1854,514.3709L 122,516L 121.8965,519.793L 121.7394,523.4788L 121.497,526.9939L 121.1762,530.3525L 121,532L 121,666L 121.1854,667.6291L 121.5375,670.9249L 121.8521,674.2958L 122,676L 122.2505,677.499L 122.7505,680.499L 123,682L 123.3333,683.3333L 124,686L 125,689L 126,691L 127.3333,693L 128,694L 129,695L 130,696L 131,697L 132,698L 134,699L 137,700L 144,700L 145.3333,699.6667L 148,699L 150,698L 152,697L 154,695.6667L 155,695L 157,693.6667L 158,693L 159,692.2495L 161,690.7495L 162,690L 163,689.0739L 165,687.2514L 167,685.5009L 169,683.8234L 170,683L 171,682.1479L 173,680.4625L 175,678.8146L 176,678L 178,676.1035L 180,674.2606L 182,672.503L 184,670.8238L 185,670L 186,669L 187,668L 188,667L 189,666L 190,665L 191,664L 193,662L 195,660L 197,658.0004L 199,656.0026L 201,654.0118L 203,652.0414L 205,650.1153L 207,648.2632L 209,646.5034L 211,644.8238L 212,644L 213,643.0739L 215,641.2514L 217,639.5009L 219,637.8234L 220,637L 222,635.0004L 224,633.0026L 226,631.0118L 228,629.0414L 230,627.1153L 232,625.2632L 234,623.5034L 236,621.8238L 237,621L 238,620.1479L 240,618.4625L 242,616.8146L 243,616L 245,614.1035L 247,612.2606L 249,610.503L 251,608.8238L 252,608L 253,607L 254,606L 256,604L 258,602L 260,600.0004L 262,598.0026L 264,596.0118L 266,594.0414L 268,592.1153L 270,590.2632L 272,588.5034L 274,586.8238L 275,586L 277,584.2218L 279,582.4917L 281,580.8216L 282,580L 283,579L 285,577L 287,575.0004L 289,573.0026L 291,571.0118L 293,569.0414L 295,567.1153L 297,565.2632L 299,563.5034L 301,561.8238L 302,561L 303,560.1479L 305,558.4625L 307,556.8146L 308,556L 310,554.1035L 312,552.2606L 314,550.503L 316,548.8238L 317,548L 318.0399,547.139L 320.1383,545.5315L 322.2705,544.2782L 324.3924,543.631L 325.8616,543.8846L 328.0904,544.9587L 329.3787,547.0479L 330.2186,549.9257L 330.6814,553.3579L 330.8928,557.1155L 330.9711,561.0301L 330.994,564.9748L 330.9991,568.8134L 330.9995,570.6567L 330.9996,572.5L 330.9993,574.3624L 330.9981,576.2508L 330.9948,578.1634L 330.9875,580.0935L 330.973,582.0316L 330.9469,583.9669L 330.9033,585.8885L 330.8353,587.7849L 330.7351,589.6455L 330.5946,591.4604L 330.406,593.2212L 330.1626,594.9214L 329.8588,596.5563L 329.4908,598.1237L 329.0569,599.6233L 328.5569,601.0571L 327.9926,602.4284L 327.3672,603.7419L 326.6851,605.0031L 325.9515,606.2179L 325.1719,607.3923L 323.5323,609.6722L 321.7543,611.8363L 319.8806,613.9244L 317.9466,615.9658L 315.9781,617.9761L 313.9919,619.9544L 311.9973,621.8834L 309.9992,623.7365L 307.9998,625.4965L 306,627.1762L 305,628L 304,628.9261L 302,630.7486L 300,632.4991L 298,634.1766L 297,635L 296,636L 294,638L 292,639.9996L 290,641.9974L 288,643.9882L 286,645.9586L 284,647.8847L 282,649.7368L 280,651.4966L 278,653.1762L 277,654L 276,654.8521L 274,656.5375L 272,658.1854L 271,659L 269,660.8965L 267,662.7394L 265,664.497L 263,666.1762L 262,667L 260,668.9975L 258,670.9882L 256,672.9586L 254,674.8847L 252,676.7368L 250,678.4966L 248,680.1762L 247,681L 245,682.7782L 243,684.5083L 241,686.1784L 240,687L 239,688L 238,689L 237,690L 236,691L 235,692L 234,693L 233,694L 232,695L 231,696L 229,698L 227,700L 225,701.9996L 223,703.9974L 221,705.9882L 219,707.9586L 217,709.8847L 215,711.7368L 213,713.4966L 211,715.1762L 210,716L 209,716.8521L 207,718.5375L 205,720.1854L 204,721L 202,722.8965L 200,724.7394L 198,726.497L 196,728.1762L 195,729L 193,730.8829L 191,732.7161L 189,734.4662L 187,736.1251L 185,737.7074L 184,738.4736L 181.9996,739.9882L 179.9974,741.4579L 177.9878,742.8537L 175.9566,744.1456L 174.9161,744.7372L 172.7907,745.875L 170.5571,746.9326L 169.3724,747.4293L 168.1537,747.9109L 165.6556,748.8431L 163.0546,749.7114L 160.3886,750.5146L 159.0368,750.885L 156.3128,751.5952L 153.5285,752.2392L 150.6349,752.8008L 149.1088,753.0279L 145.9699,753.417L 144.323,753.5439L 140.9806,753.7268L 139.2822,753.747L 135.9007,753.715L 134.2443,753.6264L 130.9962,753.377L 129.444,753.1817L 126.4181,752.726L 124.9816,752.4366L 122.1798,751.8045L 120.8479,751.4389L 119.5494,751.0524L 118.2842,750.647L 117.0516,750.2247L 115.8508,749.7872L 114.6799,749.3361L 113.5367,748.8723L 112.4187,748.396L 111.3228,747.9068L 110.246,747.4031L 109.1854,746.8826L 108.1383,746.3424L 107.1021,745.7795L 106.0746,745.1905L 105.054,744.5726L 104.0387,743.9234L 103.0275,743.2413L 101.0113,741.81L 100.0077,741.0275L 98.003,739.3995L 97.0027,738.5275L 95.005,736.7365L 94.0115,735.8005L 92.0375,733.9003L 91.0709,732.9273L 89.1758,730.9677L 88.2771,729.9773L 86.5477,727.9911L 84.9671,725.9968L 84.2574,724.9979L 82.9124,722.9989L 81.7002,720.9972L 80.5855,718.9878L 79.5319,716.9565L 78.5125,714.8749L 77.5148,712.7009L 76.5445,710.3873L 75.6276,707.8968L 74.8068,705.2129L 74.1284,702.3437L 73.6188,699.3196L 73.2632,696.1871L 73,693Z" style="fill:none;;fill-opacity:0;" fill="none"/>
  <path d="M 103,745L 105,746L 107,747L 109,748L 111,749L 113,750L 115,751L 118,752L 120.6667,752.6667L 122,753L 124.6667,753.6667L 126,754L 151,754L 152.3333,753.6667L 155,753L 156.3333,752.6667L 159,752L 160.3333,751.6667L 163,751L 166,750L 169,749L 171,748L 173,747L 175,746L 177,745L 179,744L 181,742.4008L 183,740.8228L 185,739.276L 187,737.7553L 188,737L 190,735.1035L 192,733.2606L 194,731.503L 196,729.8238L 197,729L 199,727.1035L 201,725.2606L 203,723.503L 205,721.8238L 206,721L 207,720.1479L 209,718.4625L 211,716.8146L 212,716L 213,715L 214,714L 215,713L 216,712L 217,711L 218,710L 219,709L 220,708L 221,707L 223,705L 225,703L 227,701.0004L 229,699.0026L 231,697.0118L 233,695.0414L 235,693.1153L 237,691.2632L 239,689.5034L 241,687.8238L 242,687L 244,685.2218L 246,683.4917L 248,681.8216L 249,681L 251,679.0025L 253,677.0118L 255,675.0414L 257,673.1153L 259,671.2632L 261,669.5034L 263,667.8238L 264,667L 266,665.1035L 268,663.2606L 270,661.503L 272,659.8238L 273,659L 274,658.1479L 276,656.4625L 278,654.8146L 279,654L 280,653L 282,651L 284,649.0004L 286,647.0026L 288,645.0118L 290,643.0414L 292,641.1153L 294,639.2632L 296,637.5034L 298,635.8238L 299,635L 300,634.0739L 302,632.2514L 304,630.5009L 306,628.8234L 307,628L 308,627L 309,626L 310,625L 311,624L 312,623L 313,622L 314,621L 315,620L 316,619L 317,618L 318,617L 319,616L 320,615L 321,614L 322,613L 323,612L 324,611L 325,610L 326,609L 327,608L 328,607L 329,606L 330,605L 331,604L 331,541L 323,541L 322,541.9261L 320,543.7486L 318,545.4991L 316,547.1766L 315,548L 313,549.8965L 311,551.7394L 309,553.497L 307,555.1762L 306,556L 305,556.8521L 303,558.5375L 301,560.1854L 300,561L 299,562L 297,564L 295,565.9996L 293,567.9974L 291,569.9882L 289,571.9586L 287,573.8847L 285,575.7368L 283,577.4966L 281,579.1762L 280,580L 278,581.7782L 276,583.5083L 274,585.1784L 273,586L 272,587L 271,588L 269,590L 267,592L 265,593.9996L 263,595.9974L 261,597.9882L 259,599.9586L 257,601.8847L 255,603.7368L 253,605.4966L 251,607.1762L 250,608L 248,609.8965L 246,611.7394L 244,613.497L 242,615.1762L 241,616L 240,616.8521L 238,618.5375L 236,620.1854L 235,621L 233,622.9996L 231,624.9974L 229,626.9882L 227,628.9586L 225,630.8847L 223,632.7368L 221,634.4966L 219,636.1762L 218,637L 217,637.9261L 215,639.7486L 213,641.4991L 211,643.1766L 210,644L 209,645L 208,646L 207,647L 206,648L 205,649L 204,650L 202,652L 200,654L 198,655.9996L 196,657.9974L 194,659.9882L 192,661.9586L 190,663.8847L 188,665.7368L 186,667.4966L 184,669.1762L 183,670L 181,671.8965L 179,673.7394L 177,675.497L 175,677.1762L 174,678L 173,678.8521L 171,680.5375L 169,682.1854L 168,683L 167,683.9184L 166,684.8231L 165,685.7099L 163,687.443L 160.9999,689.0902L 159.9996,689.8699L 157.9974,691.3883L 155.9883,692.8252L 153.9597,694.1763L 152.9247,694.8005L 151.873,695.3921L 150.8023,695.9459L 148.6214,696.9666L 146.3631,697.7884L 145.201,698.0723L 144.0288,698.2782L 141.6729,698.5218L 140.4931,698.4661L 138.1537,698.1656L 135.8808,697.4888L 134.8046,696.9703L 132.7375,695.7697L 130.8588,694.2604L 129.1935,692.4768L 127.7477,690.4472L 127.1311,689.3212L 126.5639,688.1453L 125.5235,685.6989L 124.6591,683.0745L 123.9447,680.2918L 123.3546,677.3622L 122.8696,674.2841L 122.4756,671.0548L 122.1498,667.7014L 122,666L 121.8238,664.3524L 121.5034,660.9931L 121.2632,657.4736L 121.1153,653.7694L 121.0414,649.9172L 121.0118,645.9764L 121.0026,641.9948L 121.0004,637.9992L 121,633.9999L 121,630L 121,626L 121,572L 121,568L 121,564.0001L 121.0004,560.0008L 121.0026,556.0052L 121.0118,552.0236L 121.0414,548.0828L 121.1153,544.2306L 121.2632,540.5264L 121.5034,537.0069L 121.8238,533.6476L 122,532L 122.1035,528.207L 122.2606,524.5212L 122.503,521.0061L 122.8238,517.6475L 123,516L 123.1479,514.2958L 123.4625,510.9249L 123.8146,507.6291L 124,506L 124,242L 124,238L 124,234.0001L 124.0004,230.0008L 124.0026,226.0052L 124.0118,222.0236L 124.0414,218.0828L 124.1153,214.2306L 124.2632,210.5264L 124.3833,208.7666L 124.5239,207.0473L 124.8387,203.6732L 125.0253,202.0382L 125.4252,198.8055L 125.8868,195.6495L 126.1582,194.1157L 126.4546,192.6093L 126.7771,191.1336L 127.1264,189.6916L 127.5027,188.2862L 128.3096,185.5531L 129.226,182.9797L 129.7403,181.7732L 130.2844,180.603L 131.4352,178.3287L 132.0758,177.2516L 133.4271,175.1479L 134.9207,173.143L 135.7397,172.1918L 137.4489,170.3498L 138.3758,169.4955L 139.341,168.6809L 141.3538,167.1381L 142.449,166.46L 144.7411,165.2127L 145.9923,164.707L 148.5988,163.8313L 151.3925,163.2436L 152.8513,163.1061L 154.317,163.0481L 157.2357,163.0868L 160.0829,163.4203L 162.7829,164.0137L 165.2996,164.8247L 167.6386,165.8153L 169.8349,166.9572L 171.9343,168.2302L 173.9776,169.618L 175.9936,171.1056L 177.9985,172.679L 179.9997,174.32L 182,176L 184,177.6455L 186,179.3122L 188,181L 190,182.6455L 192,184.3122L 193,185.1561L 195,186.8446L 197,188.5547L 199,190.3176L 201,192.1397L 203,194L 205,195.6455L 207,197.3122L 209,199L 211,200.6455L 213,202.3122L 214,203.1561L 216,204.8446L 218,206.5547L 220,208.3176L 222,210.1397L 224,212L 226,213.6455L 228,215.3122L 229,216.1561L 230,217.0005L 232,218.7008L 234,220.4406L 236,222.2419L 238,224.1029L 240,226L 242,227.6455L 244,229.3122L 246,231L 247,231.8338L 249,233.5189L 251,235.2436L 253,237L 254,237.8338L 256,239.5189L 258,241.2436L 260,243L 261,243.8338L 263,245.5189L 265,247.2436L 267,249L 269,250.6861L 271,252.4097L 273,254.1862L 275,256L 277,257.6455L 279,259.3122L 281,261L 282,261.8338L 284,263.5189L 286,265.2436L 288,267L 289,267.8338L 291,269.5189L 293,271.2436L 295,273L 297,274.6455L 299,276.3122L 301,278L 302,278.8338L 304,280.5189L 306,282.2436L 308,284L 310,285.6455L 312,287.3122L 314,289L 316,290.6455L 318,292.3122L 319,293.1561L 321,294.8446L 323,296.5547L 325,298.3176L 327,300.1397L 329,302L 331,303.6455L 333,305.3122L 334,306.1561L 335,307.0005L 337,308.7008L 339,310.4406L 341,312.2419L 343,314.1029L 345,316L 347,317.6455L 349,319.3122L 351,321L 352,321.8338L 354,323.5189L 356,325.2436L 358,327L 359,327.8338L 361,329.5189L 363,331.2436L 365,333L 366,333.8338L 368,335.5189L 370,337.2436L 372,339L 374,340.6861L 376,342.4097L 378,344.1862L 380,346L 382,347.5962L 384,349.206L 386,350.8428L 388,352.52L 390,354.2436L 392,356L 394,357.6455L 396,359.3122L 398,361L 400,362.6455L 402,364.3122L 403,365.1561L 405,366.8446L 407,368.5547L 409,370.3176L 411,372.1397L 413,374L 414,374.7976L 416,376.3974L 418,378.0108L 420,379.6469L 422,381.3123L 424,383L 426,384.4995L 428,386L 437,386L 439,384.1035L 441,382.2606L 443,380.503L 445,378.8238L 446,378L 447,377.0739L 449,375.2514L 451,373.5009L 453,371.8234L 454,371L 455,370L 457,368.0004L 459,366.0026L 461,364.0118L 463,362.0414L 465,360.1153L 467,358.2632L 469,356.5034L 471,354.8238L 472,354L 474,352.1035L 476,350.2606L 478,348.503L 480,346.8238L 481,346L 482,345.1479L 484,343.4625L 486,341.8146L 487,341L 488,340.0739L 490,338.2514L 492,336.5009L 494,334.8234L 495,334L 497,332.2218L 499,330.4917L 501,328.8216L 502,328L 503,327.0296L 505,325.1127L 507,323.2628L 509,321.5034L 511,319.8238L 512,319L 514,317.1035L 516,315.2606L 518,313.503L 520,311.8238L 521,311L 522,310.1479L 524,308.4625L 526,306.8146L 527,306L 529,304.0025L 531,302.0118L 533,300.0414L 535,298.1153L 537,296.2632L 539,294.5034L 541,292.8238L 542,292L 544,290.2218L 546,288.4917L 548,286.8216L 549,286L 551,284.0114L 553,282.0413L 555,280.1153L 557,278.2632L 559,276.5034L 561,274.8238L 562,274L 564,272.1035L 566,270.2606L 568,268.503L 570,266.8238L 571,266L 572,265.1479L 574,263.4625L 576,261.8146L 577,261L 579,259.0025L 581,257.0118L 583,255.0414L 585,253.1153L 587,251.2632L 589,249.5034L 591,247.8238L 592,247L 594,245.2218L 596,243.4917L 598,241.8216L 599,241L 600,240.0296L 602,238.1127L 604,236.2628L 606,234.5034L 608,232.8238L 609,232L 611,230.1035L 613,228.2606L 615,226.503L 617,224.8238L 618,224L 619,223.1479L 621,221.4625L 623,219.8146L 624,219L 626,217.0114L 628,215.0413L 630,213.1153L 632,211.2632L 634,209.5034L 636,207.8238L 637,207L 639,205.2218L 641,203.4917L 643,201.8216L 644,201L 646,199.0025L 648,197.0118L 650,195.0414L 652,193.1153L 654,191.2632L 656,189.5034L 658,187.8238L 659,187L 661,185.1035L 663,183.2606L 665,181.503L 667,179.8238L 668,179L 670,177.3205L 671,176.4996L 673,174.8887L 675.0003,173.3435L 676.0015,172.6056L 678.0081,171.1632L 680.0314,169.7852L 682.0935,168.4656L 684.2241,167.1984L 685.3366,166.5909L 686.4744,165.9997L 688.798,164.8565L 691.2101,163.8064L 692.4546,163.3419L 694.9823,162.4846L 696.2889,162.1321L 697.6208,161.8227L 698.9781,161.5595L 701.7395,161.1326L 704.5793,160.9162L 706.0169,160.9215L 707.4486,160.983L 708.8674,161.0979L 710.2671,161.2633L 711.6424,161.4763L 712.9894,161.7346L 715.621,162.3383L 718.121,163.1122L 719.3031,163.5828L 720.4539,164.0959L 722.6982,165.2086L 723.7673,165.8513L 724.8134,166.5362L 726.8595,167.9874L 728.81,169.592L 730.6522,171.3282L 732.3664,173.1697L 733.1517,174.1321L 734.6487,176.0941L 735.3264,177.1145L 736.6183,179.1995L 737.7919,181.376L 738.8611,183.641L 739.8309,185.978L 740.6986,188.3684L 741.4603,190.8053L 742.1185,193.2966L 742.6841,195.8583L 742.9284,197.1809L 743.3882,199.8782L 743.8006,202.7112L 744.1758,205.7444L 744.4996,209.0146L 744.7486,212.5027L 744.9261,216.1479L 745,218L 745.1762,219.6476L 745.4966,223.0069L 745.7368,226.5264L 745.8847,230.2306L 745.9586,234.0828L 745.9882,238.0236L 745.9974,242.0052L 745.9996,246.0008L 746,250.0001L 746,254L 746,258L 746,621L 746,625L 746,628.9999L 745.9996,632.9992L 745.9974,636.9948L 745.9882,640.9764L 745.9586,644.9172L 745.8847,648.7694L 745.7368,652.4736L 745.4966,655.9931L 745.1762,659.3524L 745,661L 744.8884,662.777L 744.6374,666.2767L 744.4759,667.9575L 744.2914,669.5963L 743.8751,672.7922L 743.6183,674.3123L 743.3355,675.7978L 742.7156,678.7031L 741.9808,681.4839L 741.5498,682.8171L 740.6183,685.4282L 739.5417,687.926L 738.9255,689.1134L 737.6105,691.4167L 736.1272,693.5644L 735.2985,694.5468L 734.425,695.4764L 732.5876,697.2226L 731.5782,697.9754L 729.4706,699.3455L 728.3324,699.8867L 725.9847,700.8092L 724.751,701.105L 722.2499,701.5247L 720.9811,701.5658L 718.4557,701.492L 715.981,701.1309L 713.5985,700.5371L 712.4623,700.1533L 710.2411,699.3228L 708.1103,698.3802L 706.0436,697.3406L 704.0146,696.2007L 702.0041,694.951L 701.0025,694.2699L 699.0005,692.8568L 697.0001,691.3527L 695,689.7798L 693,688.1544L 691,686.4796L 689,684.7564L 687,683L 685.0004,681.2717L 683.0026,679.5131L 681.0118,677.7038L 679.0414,675.8372L 677.1153,673.9199L 675.2632,671.965L 673.5034,669.9868L 671.8238,667.9968L 671,667L 669.3567,665L 668.5596,664L 667.007,661.9996L 665.5453,659.9975L 664.1822,657.9884L 663.5486,656.9738L 662.9373,655.9481L 661.7584,653.8656L 660.6647,651.7043L 659.6544,649.4348L 658.7282,647.0411L 657.8878,644.5227L 657.1356,641.8836L 656.4756,639.1161L 656.1928,637.6598L 655.6696,634.6757L 655.2204,631.563L 654.8297,628.3413L 654.5036,624.9929L 654.2632,621.4736L 654.1153,617.7694L 654.0414,613.9172L 654.0118,609.9764L 654.0026,605.9948L 654.0004,601.9992L 654,597.9999L 654,594L 654,590L 654,334L 653,333L 651,333L 649,334L 647,335L 645,336L 644,336.9704L 642,338.8873L 640,340.7372L 638,342.4966L 636,344.1762L 635,345L 633,346.7782L 631,348.5083L 629,350.1784L 628,351L 626,352.9975L 624,354.9882L 622,356.9586L 620,358.8847L 618,360.7368L 616,362.4966L 614,364.1762L 613,365L 611,366.8965L 609,368.7394L 607,370.497L 605,372.1762L 604,373L 603,373.8521L 601,375.5375L 599,377.1854L 598,378L 597,379L 595,381L 593,382.9996L 591,384.9974L 589,386.9882L 587,388.9586L 585,390.8847L 583,392.7368L 581,394.4966L 579,396.1762L 578,397L 577,397.9261L 575,399.7486L 573,401.4991L 571,403.1766L 570,404L 569,404.9908L 567,406.959L 565,408.8847L 563,410.7368L 561,412.4966L 559,414.1762L 558,415L 556,416.8965L 554,418.7394L 552,420.497L 550,422.1762L 549,423L 548,423.8521L 546,425.5375L 544,427.1854L 543,428L 542,429L 540,431L 538,432.9996L 536,434.9974L 534,436.9882L 532,438.9586L 530,440.8847L 528,442.7368L 526,444.4966L 524,446.1762L 523,447L 522,447.9261L 520,449.7486L 518,451.4991L 516,453.1766L 515,454L 514,454.9704L 512,456.8873L 510,458.7372L 508,460.4966L 506,462.1762L 505,463L 503,464.8965L 501,466.7394L 499,468.497L 497,470.1762L 496,471L 495,471.8521L 493,473.5375L 491,475.1854L 490,476L 489,477L 487,479L 485,481L 483,482.9996L 481,484.9974L 479,486.9882L 477,488.9586L 475,490.8847L 473,492.7368L 471,494.4966L 469,496.1762L 468,497L 466,498.7782L 465,499.6432L 464,500.4921L 463,501.3258L 461,502.9646L 460,503.7557L 457.9996,505.3086L 455.9974,506.8001L 453.9883,508.2268L 452.9734,508.9073L 451.9466,509.5701L 449.8586,510.8558L 448.7688,511.4519L 446.5207,512.5791L 445.3194,513.0645L 444.0746,513.4966L 441.5024,514.24L 438.7851,514.7167L 435.9809,514.8885L 433.1751,514.744L 431.8148,514.5226L 430.4915,514.2358L 429.2079,513.8887L 426.7207,513.0834L 424.3878,512.0745L 422.1859,510.8977L 420.0782,509.5874L 418.0283,508.174L 416.0086,506.6783L 414.0021,505.1082L 412.0004,503.4639L 410,501.7526L 408,500L 406,498.3545L 405,497.5211L 403,495.8419L 401,494.1379L 399,492.4034L 397,490.6229L 395,488.7847L 393,486.8899L 391,484.9504L 389,482.982L 387,481L 385,479.3545L 383,477.6878L 381,476L 380,475.1662L 378,473.4811L 376,471.7564L 374,470L 372,468.3139L 370,466.5903L 368,464.8138L 366,463L 365,462.1554L 363,460.4453L 361,458.6824L 359,456.8603L 357,455L 355,453.2641L 353,451.5004L 351,449.6895L 349,447.8245L 347,445.9105L 345,443.9591L 343,441.9834L 341,439.9945L 339,438L 337,436.3545L 335,434.6878L 334,433.8439L 332,432.1554L 330,430.4453L 328,428.6824L 326,426.8603L 324,425L 322,423.3139L 320,421.5903L 318,419.8138L 316,418L 315,417.1662L 313,415.4811L 311,413.7564L 309,412L 307,410.2992L 305,408.5594L 303,406.7581L 301,404.8971L 299,403L 298,402.1662L 296,400.4811L 294,398.7564L 292,397L 290,395.2992L 288,393.5594L 286,391.7581L 284,389.8971L 282,388L 280,386.2799L 278,384.5269L 276,382.719L 274,380.8506L 272,378.9301L 270,376.9739L 268,375L 266,373.3545L 264,371.6878L 263,370.8439L 262,369.9995L 260,368.2992L 258,366.5594L 256,364.7581L 254,362.8971L 252,361L 251,360.1662L 249,358.4811L 247,356.7564L 245,355L 243,353.3139L 241,351.5903L 239,349.8138L 237,348L 235,346.3545L 233,344.6878L 231,343L 224,343L 223,344L 223,406L 224,407L 225,408L 226,409L 227,410L 228,411L 229,412L 230,413L 232,414.6455L 233,415.4791L 235,417.1599L 237,418.868L 239,420.6078L 241,422.3915L 243,424.2295L 245,426.1214L 247,428.0576L 249,430.0241L 251,432.0082L 253,434L 255,435.6455L 257,437.3122L 258,438.1561L 260,439.8446L 262,441.5547L 264,443.3176L 266,445.1397L 268,447L 269,447.8338L 271,449.5189L 273,451.2436L 275,453L 276,453.8446L 278,455.5547L 280,457.3176L 282,459.1397L 284,461L 285,461.8505L 287,463.5714L 289,465.344L 291,467.1812L 293,469.0746L 295,471L 296,471.8338L 298,473.5189L 300,475.2436L 302,477L 304,478.6861L 306,480.4097L 308,482.1862L 310,484L 311,484.8446L 313,486.5547L 315,488.3176L 317,490.1397L 319,492L 321,493.6455L 322,494.4789L 324,496.1581L 326,497.8621L 328,499.5966L 330,501.3771L 332,503.2153L 334,505.1101L 336,507.0496L 338,509.018L 340,511L 341,511.8338L 343,513.5189L 345,515.2436L 347,517L 349,518.6861L 351,520.4097L 353,522.1862L 355,524L 356,524.8446L 358,526.5547L 360,528.3176L 362,530.1397L 364,532L 366,533.6455L 368,535.3122L 369,536.1561L 370,537.0005L 372,538.7008L 374,540.4406L 376,542.2419L 378,544.1029L 380,546L 381,546.8338L 383,548.5189L 385,550.2436L 387,552L 388,552.8446L 390,554.5547L 392,556.3176L 394,558.1397L 396,560L 397,560.8555L 399,562.5847L 401,564.3615L 403,566.2002L 405,568.0973L 407,570.0376L 409,572L 411,573.6455L 413,575.3122L 414,576.1561L 415,577.0005L 417,578.7008L 419,580.4406L 421,582.2419L 423,584.1029L 425,586L 427,587.4995L 429,589L 431,590.4995L 433,592L 434,592.6667L 436,594L 438,594L 440,593L 441,592.2495L 443,590.7495L 444,590L 446,588.3907L 448,586.7942L 449,586L 450,585.0739L 452,583.2514L 454,581.5009L 456,579.8234L 457,579L 459,577.1035L 461,575.2606L 463,573.503L 465,571.8238L 466,571L 467,570.1479L 469,568.4625L 471,566.8146L 472,566L 474,564.0025L 476,562.0118L 478,560.0414L 480,558.1153L 482,556.2632L 484,554.5034L 486,552.8238L 487,552L 489,550.2218L 491,548.4917L 493,546.8216L 494,546L 496,544.0025L 498,542.0118L 500,540.0414L 502,538.1153L 504,536.2632L 506,534.5034L 508,532.8238L 509,532L 511,530.1035L 513,528.2606L 515,526.503L 517,524.8238L 518,524L 519,523.1479L 521,521.4625L 523,519.8146L 524,519L 526,517.0114L 528,515.0413L 530,513.1153L 532,511.2632L 534,509.5034L 536,507.8238L 537,507L 539,505.2218L 541,503.4917L 543,501.8216L 544,501L 545,500L 547,498.0004L 549,496.0026L 551,494.0118L 553,492.0414L 555,490.1153L 557,488.2632L 559,486.5034L 561,484.8238L 562,484L 564,482.1035L 566,480.2606L 568,478.503L 570,476.8238L 571,476L 572,475.1479L 574,473.4625L 576,471.8146L 577,471L 578.0078,470.1803L 579.0204,469.3778L 580.0408,468.5995L 582.1031,467.1032L 583.1612,466.427L 585.3121,465.1706L 586.4217,464.6521L 588.6674,463.7565L 590.945,463.1814L 592.0731,463.0913L 594.2841,463.1408L 596.3685,463.6687L 598.2604,464.6938L 599.9114,466.1967L 601.2987,468.1259L 602.4241,470.4168L 603.3068,473.0155L 603.9748,475.89L 604.4661,479.0104L 604.8366,482.3138L 605,484L 605.1762,485.6476L 605.4966,489.0069L 605.7368,492.5264L 605.8847,496.2306L 605.9586,500.0828L 605.9882,504.0236L 605.9974,508.0052L 605.9996,512.0008L 606,516.0001L 606,520L 606,524L 606,674L 607,675L 608,676L 609,677L 610,678L 611,679L 612,680L 613,681L 614,682L 615,683L 616,684L 617,685L 618,686L 619,687L 620,688L 621,689L 622,690L 623,691L 624,692L 625,693L 626,694L 627,695L 628,696L 629,697L 630,698L 631,699L 632,700L 633,701L 634,702L 635,703L 636,704L 637,705L 638,706L 639,707L 640,708L 641,709L 642,710L 643,711L 644,712L 645,713L 646,714L 647,715L 648,716L 649,717L 650,718L 651,719L 652,720L 653,721L 654,722L 655,723L 656,724L 657,725L 658,726L 659,727L 660,728L 661,729L 662,730L 663,731L 664,732L 665,733L 666,734L 667,735L 668,736L 669,737L 670,738L 671,739L 672,740L 673,741L 674,742L 675,743L 676,744L 677,745L 678,746L 679,747L 680,748L 681,749L 682,750L 683,750.6667L 685,752L 686,752.6667L 688,754L 690,755L 692,756L 695,757L 697.6667,757.6667L 699,758L 701.6667,758.6667L 703,759L 741,759L 744,758L 747,757L 750,756L 752,755L 754,754L 756,753L 758,752L 760,751L 762,750L 764,749L 765,748L 766,747L 767,746L 768,745L 769,744L 770,743L 771,742L 772,741L 773,740L 774,739L 775,738L 776,737L 777,736L 778,735L 779,734L 780,733L 781,732L 782,731L 783,730L 783.6667,729L 785,727L 786,725L 787,723L 788,721L 789,719L 790,717L 791,715L 792,712L 793,709L 794,706L 795,703L 796,700L 796,252L 795.833,250.4375L 795.5444,247.2917L 795.3785,244.1042L 795.3785,240.8958L 795.5444,237.7083L 795.833,234.5625L 796,233L 796,192L 795.7942,190.4115L 795.3907,187.2187L 795,184L 794.7942,182.4115L 794.3907,179.2187L 794,176L 793.6667,174.6667L 793,172L 792.6667,170.6667L 792,168L 791,165L 790,163L 789,161L 788,159L 787,157L 786,155L 785,153L 784,151L 783,149L 782,147L 781,145L 780.2495,144L 778.7495,142L 778,141L 777.2495,140L 775.7495,138L 775,137L 774,136L 773,135L 772,134L 771,133L 770,132L 769,131L 768,130L 767,129L 766,128L 765,127L 764,126L 763,125L 762,124L 760,122.5005L 758,121L 756,119.5005L 754,118L 752,117L 750,116L 748,115L 746,114L 744,113L 742,112L 740,111L 737,110L 734,109L 731,108L 729.499,107.7505L 726.499,107.2505L 725,107L 723.499,106.7505L 720.499,106.2505L 719,106L 693,106L 691.501,106.2505L 688.501,106.7505L 687,107L 685.501,107.2505L 682.501,107.7505L 681,108L 678,109L 675,110L 672,111L 670,112L 668,113L 666,114L 664,115L 662,116L 660,117L 658,118L 656,119.3333L 655,120L 653,121.3333L 652,122L 650,123.7782L 648,125.5083L 646,127.1784L 645,128L 643,129.8965L 641,131.7394L 639,133.497L 637,135.1762L 636,136L 635,136.8521L 633,138.5375L 631,140.1854L 630,141L 629,141.9908L 627,143.959L 625,145.8847L 623,147.7368L 621,149.4966L 619,151.1762L 618,152L 617,152.9261L 615,154.7486L 613,156.4991L 611,158.1766L 610,159L 608,160.7782L 606,162.5083L 604,164.1784L 603,165L 601,166.8965L 599,168.7394L 597,170.497L 595,172.1762L 594,173L 593,173.8521L 591,175.5375L 589,177.1854L 588,178L 586,179.9886L 584,181.9587L 582,183.8847L 580,185.7368L 578,187.4966L 576,189.1762L 575,190L 573,191.7782L 571,193.5083L 569,195.1784L 568,196L 567,196.9704L 565,198.8873L 563,200.7372L 561,202.4966L 559,204.1762L 558,205L 556,206.8965L 554,208.7394L 552,210.497L 550,212.1762L 549,213L 548,213.8521L 546,215.5375L 544,217.1854L 543,218L 542,218.9704L 540,220.8873L 538,222.7372L 536,224.4966L 534,226.1762L 533,227L 532,227.9261L 530,229.7486L 528,231.4991L 526,233.1766L 525,234L 524,234.9908L 522,236.959L 520,238.8847L 518,240.7368L 516,242.4966L 514,244.1762L 513,245L 511,246.8965L 509,248.7394L 507,250.497L 505,252.1762L 504,253L 503,253.8521L 501,255.5375L 499,257.1854L 498,258L 496,259.9886L 494,261.9587L 492,263.8847L 490,265.7368L 488,267.4966L 486,269.1762L 485,270L 483,271.7782L 481,273.5083L 479,275.1784L 478,276L 477,276.9704L 475,278.8873L 473,280.7372L 471,282.4966L 469,284.1762L 468,285L 466,286.8965L 464,288.7394L 462,290.497L 460,292.1762L 459,293L 458,293.8521L 456,295.5375L 454,297.1854L 453,298L 450.9996,299.68L 449.9985,300.5005L 447.9929,302.1078L 445.9738,303.6382L 443.9223,305.0745L 442.8658,305.7359L 440.7055,306.9877L 439.5727,307.5322L 437.25,308.515L 436.0361,308.8852L 433.5707,309.4767L 431.0543,309.7508L 428.5367,309.6877L 427.3012,309.4967L 424.8713,308.9803L 422.5323,308.2238L 420.2923,307.2791L 418.1419,306.1802L 416.0597,304.9453L 414.0213,303.5875L 413.0138,302.8561L 412.0088,302.1049L 410.0024,300.57L 408.0005,298.9809L 406.0001,297.3516L 404,295.6876L 402,294L 400,292.3545L 398,290.6878L 396,289L 395,288.1662L 393,286.4811L 391,284.7564L 389,283L 388,282.2024L 386,280.6026L 384,278.9892L 382,277.3531L 380,275.6877L 378,274L 377,273.1662L 375,271.4811L 373,269.7564L 371,268L 370,267.1662L 368,265.4811L 366,263.7564L 364,262L 362,260.2992L 360,258.5594L 358,256.7581L 356,254.8971L 354,253L 352,251.3545L 350,249.6878L 348,248L 346,246.3545L 344,244.6878L 342,243L 340,241.3139L 338,239.5903L 336,237.8138L 334,236L 332,234.3545L 330,232.6878L 328,231L 326,229.3545L 324,227.6878L 322,226L 320,224.3545L 318,222.6878L 316,221L 315,220.1662L 313,218.4811L 311,216.7564L 309,215L 308,214.1662L 306,212.4811L 304,210.7564L 302,209L 301,208.1662L 299,206.4811L 297,204.7564L 295,203L 293,201.3139L 291,199.5903L 289,197.8138L 287,196L 286,195.1662L 284,193.4811L 282,191.7564L 280,190L 278,188.3139L 276,186.5903L 274,184.8138L 272,183L 270,181.3139L 268,179.5903L 266,177.8138L 264,176L 263,175.1662L 261,173.4811L 259,171.7564L 257,170L 255,168.3139L 253,166.5903L 251,164.8138L 249,163L 248,162.2024L 246,160.6026L 244,158.9892L 242,157.3531L 240,155.6877L 238,154L 236,152.3545L 234,150.6878L 232,149L 231,148.1662L 229,146.4811L 227,144.7564L 225,143L 223,141.3139L 221,139.5903L 219,137.8138L 217,136L 215,134.4038L 213,132.794L 211,131.1572L 209,129.48L 207,127.7564L 205,126L 204,125.2038L 202,123.6061L 200,122L 199,121.3333L 197,120L 196,119.3333L 194,118L 192,117L 190,116L 188.7495,115.5L 186.2495,114.5L 185,114L 183.7495,113.5L 181.2495,112.5L 180,112L 177,111L 174.3333,110.3333L 173,110L 170.4449,109.4565L 167.8776,108.892L 165.2948,108.3012L 164,108L 141,108L 139.6667,108.3333L 137,109L 135.6667,109.3333L 133,110L 131.6667,110.3333L 129,111L 126,112L 123,113L 120,114L 117,115L 115,116L 113,117.3333L 112,118L 110,119.3333L 109,120L 108,121L 107,122L 106,123L 105,124L 104,125L 103,126L 102,127L 101,128L 100,129L 99,130L 98,131L 97,132L 96,133L 95,134L 94,135L 93,136L 92,137L 91,138L 90,139L 89.3333,140L 88,142L 87.3333,143L 86,145L 85,147L 84,149L 83,151L 82,153L 81,155L 80,157L 79,160L 78,163L 77.3333,165.6667L 77,167L 76.3333,169.6667L 76,171L 76,262L 76,266L 76,269.9999L 75.9996,273.9992L 75.9974,277.9948L 75.9882,281.9764L 75.9586,285.9172L 75.8847,289.7694L 75.7368,293.4736L 75.4966,296.9931L 75.1762,300.3524L 75,302L 74.8965,305.793L 74.7394,309.4788L 74.497,312.9939L 74.1762,316.3525L 74,318L 73.8521,319.7042L 73.5375,323.0751L 73.1854,326.3709L 73,328L 73,616L 73,620L 73,623.9999L 72.9996,627.9992L 72.9974,631.9948L 72.9882,635.9764L 72.9586,639.9172L 72.8847,643.7694L 72.7368,647.4736L 72.4966,650.9931L 72.1762,654.3524L 72,656L 71.7782,659.5564L 71.5083,663.0167L 71.1784,666.3567L 71,668L 71,683L 71.1854,684.6291L 71.5375,687.9249L 71.8521,691.2958L 72,693L 72.1784,694.5488L 72.5083,697.6638L 72.7782,700.8169L 73,704L 74,707L 75,710L 76,712L 77,714L 78,716L 79,718L 80,720L 81,722L 82,724L 83,726L 84,727L 85,728L 86,729L 87,730L 88,731L 89,732L 90,733L 91,734L 92,735L 93,736L 94,737L 95,738L 96,739L 97,740L 98,741L 99,742L 100,743L 101,744Z" style="fill:rgb(27,25,20);"/>
</svg>
